<?xml version="1.0" encoding="utf-8"?>
<!-- Generator: Adobe Illustrator 25.4.1, SVG Export Plug-In . SVG Version: 6.00 Build 0)  -->
<svg version="1.1" id="Layer_1" xmlns="http://www.w3.org/2000/svg" xmlns:xlink="http://www.w3.org/1999/xlink" x="0px" y="0px"
	 viewBox="0 0 1000 1000" style="enable-background:new 0 0 1000 1000;" xml:space="preserve">
<style type="text/css">
	.st0{display:none;fill:#0C0B1B;}
	.st1{fill:#E5E5E5;}
	.st2{fill:none;stroke:#E5E5E5;stroke-width:19.9768;stroke-miterlimit:10;}
</style>
<rect class="st0" width="1000" height="1000"/>
<g>
	<path class="st1" d="M522.54,513.19v377.93c0,12.6,13.64,20.47,24.54,14.17l327.32-189.01c5.06-2.92,8.18-8.32,8.18-14.17V324.18
		c0-12.6-13.64-20.47-24.54-14.17L530.72,499.03C525.66,501.95,522.54,507.35,522.54,513.19z M784.39,645.44v0.02
		c0,5.85-3.12,11.25-8.18,14.17L645.28,735.2c-10.91,6.3-24.54-1.58-24.54-14.17v-0.01c0-5.85,3.12-11.25,8.18-14.17l130.93-75.59
		C770.76,624.97,784.39,632.84,784.39,645.44z M784.39,494.28L784.39,494.28c0,5.85-3.12,11.25-8.18,14.17l-130.93,75.59
		c-10.91,6.3-24.54-1.57-24.54-14.17v-0.02c0-5.85,3.12-11.25,8.18-14.17l130.93-75.57C770.76,473.82,784.39,481.69,784.39,494.28z"
		/>
	<path class="st1" d="M367.08,584.05l-130.93-75.59c-5.06-2.92-8.18-8.32-8.18-14.17V361.96c0-5.85-3.12-11.25-8.18-14.17
		L154.31,310c-10.91-6.3-24.54,1.58-24.54,14.17v226.79c0,5.85,3.12,11.25,8.18,14.17l245.49,141.72c5.06,2.92,8.18,8.32,8.18,14.17
		v0.01c0,12.59-13.63,20.47-24.54,14.17L154.31,612.42c-10.91-6.29-24.54,1.58-24.54,14.17v75.52c0,5.84,3.12,11.25,8.18,14.17
		l327.32,189.01c10.91,6.3,24.54-1.57,24.54-14.17V513.19c0-5.84-3.12-11.24-8.17-14.17l-65.47-37.84
		c-10.91-6.3-24.55,1.57-24.55,14.17v94.52C391.62,582.47,377.98,590.34,367.08,584.05z"/>
	<path class="st1" d="M759.85,215.58L514.36,357.27c-5.06,2.92-11.3,2.92-16.36,0L252.51,215.58c-5.06-2.92-11.3-2.92-16.36,0
		l-65.44,37.77c-10.91,6.3-10.91,22.04,0,28.34l327.29,189c5.06,2.92,11.3,2.92,16.36,0l327.29-189c10.91-6.3,10.91-22.04,0-28.34
		l-65.44-37.77C771.14,212.66,764.91,212.66,759.85,215.58z"/>
	<path class="st1" d="M579.85,102.21l-65.49-37.85c-5.07-2.93-11.31-2.93-16.38,0l-65.49,37.85c-10.9,6.3-10.9,22.05,0.01,28.34
		L498,168.32c5.06,2.92,11.29,2.92,16.35,0l65.49-37.78C590.75,124.25,590.76,108.51,579.85,102.21z"/>
	<path class="st1" d="M710.75,177.71l-65.47-37.76c-5.06-2.92-11.3-2.92-16.36,0l-114.56,66.16c-5.06,2.92-11.3,2.92-16.36,0
		l-114.56-66.16c-5.06-2.92-11.3-2.92-16.36,0l-65.47,37.76c-10.91,6.29-10.92,22.04-0.01,28.34L498,319.45
		c5.06,2.92,11.3,2.92,16.36,0l196.4-113.39C721.66,199.75,721.66,184,710.75,177.71z"/>
</g>
<path class="st2" d="M108.75,270.25l0,443.8c0,5.85,3.12,11.25,8.18,14.17l384.34,221.9c5.06,2.92,11.3,2.92,16.36,0l384.34-221.9
	c5.06-2.92,8.18-8.32,8.18-14.17l0-443.8c0-5.85-3.12-11.25-8.18-14.17L517.63,34.18c-5.06-2.92-11.3-2.92-16.36,0l-384.34,221.9
	C111.86,259,108.75,264.4,108.75,270.25z"/>
</svg>
