<?xml version="1.0" encoding="utf-8"?>
<!-- Generator: Adobe Illustrator 25.4.1, SVG Export Plug-In . SVG Version: 6.00 Build 0)  -->
<svg version="1.1" id="Layer_1" xmlns="http://www.w3.org/2000/svg" xmlns:xlink="http://www.w3.org/1999/xlink" x="0px" y="0px"
	 viewBox="0 0 1000 1000" style="enable-background:new 0 0 1000 1000;" xml:space="preserve">
<style type="text/css">
	.st0{fill:#0C0B1B;}
	.st1{fill:url(#SVGID_1_);}
	.st2{fill:url(#SVGID_00000078749360265569148020000011888158244204968868_);}
	.st3{fill:url(#SVGID_00000118362173524229487660000014141646591783571633_);}
	.st4{fill:url(#SVGID_00000173841541741109414860000009620633162208044184_);}
	.st5{fill:url(#SVGID_00000072254858329535323250000006814733310010225562_);}
	.st6{fill:url(#SVGID_00000021811706784483099330000017395448999953893291_);}
</style>
<g>
	<path class="st0" d="M325.7,938.07L325.7,938.07l-183.04,0c-20.22,0-36.61-16.39-36.61-36.61V718.42h0
		c40.44,0,73.22,32.78,73.22,73.22v73.22h73.22C292.92,864.85,325.7,897.63,325.7,938.07z"/>
	<path class="st0" d="M344.01,956.37H142.66c-30.28,0-54.91-24.63-54.91-54.91V700.12h18.3c50.47,0,91.52,41.06,91.52,91.52v54.91
		h54.91c50.47,0,91.52,41.06,91.52,91.52V956.37z M124.36,739.86v161.6c0,10.09,8.21,18.3,18.3,18.3h161.6
		c-7.55-21.31-27.91-36.61-51.78-36.61h-91.52v-91.52C160.97,767.77,145.67,747.41,124.36,739.86z"/>
</g>
<g>
	<linearGradient id="SVGID_1_" gradientUnits="userSpaceOnUse" x1="545.3557" y1="352.3354" x2="765.0065" y2="352.3354">
		<stop  offset="0" style="stop-color:#7A2890"/>
		<stop  offset="1" style="stop-color:#B449A1"/>
	</linearGradient>
	<path class="st1" d="M545.36,242.51v256.26h146.43c40.44,0,73.22-32.78,73.22-73.22V279.12c0-40.44-32.78-73.22-73.22-73.22H581.96
		C561.75,205.9,545.36,222.29,545.36,242.51z M673.49,425.55h-47.59c-4.04,0-7.32-3.28-7.32-7.32V286.44c0-4.04,3.28-7.32,7.32-7.32
		h47.59c10.11,0,18.3,8.2,18.3,18.3v109.83C691.79,417.36,683.59,425.55,673.49,425.55z"/>
	
		<linearGradient id="SVGID_00000031209176632257096820000003630798746686418309_" gradientUnits="userSpaceOnUse" x1="527.0515" y1="352.3354" x2="783.3107" y2="352.3354">
		<stop  offset="0" style="stop-color:#7A2890"/>
		<stop  offset="1" style="stop-color:#B449A1"/>
	</linearGradient>
	<path style="fill:url(#SVGID_00000031209176632257096820000003630798746686418309_);" d="M691.79,517.07H527.05V242.51
		c0-30.28,24.63-54.91,54.91-54.91h109.83c50.47,0,91.52,41.06,91.52,91.52v146.43C783.31,476.02,742.25,517.07,691.79,517.07z
		 M563.66,480.46h128.13c30.28,0,54.91-24.63,54.91-54.91V279.12c0-30.28-24.63-54.91-54.91-54.91H581.96
		c-10.09,0-18.3,8.21-18.3,18.3V480.46z"/>
</g>
<g>
	
		<linearGradient id="SVGID_00000114785008297449590680000015724555264858986658_" gradientUnits="userSpaceOnUse" x1="545.3557" y1="645.203" x2="765.0065" y2="645.203">
		<stop  offset="0" style="stop-color:#7A2890"/>
		<stop  offset="1" style="stop-color:#B449A1"/>
	</linearGradient>
	<path style="fill:url(#SVGID_00000114785008297449590680000015724555264858986658_);" d="M564.04,791.64h145.67
		c30.54,0,55.29-24.76,55.29-55.29V554.06c0-30.54-24.76-55.29-55.29-55.29H545.36v274.18
		C545.36,783.27,553.72,791.64,564.04,791.64z M691.79,590.67v109.45c0,10.11-8.2,18.3-18.3,18.3h-47.59
		c-4.04,0-7.32-3.28-7.32-7.32V579.31c0-4.04,3.28-7.32,7.32-7.32h47.21C683.42,571.99,691.79,580.35,691.79,590.67z"/>
	
		<linearGradient id="SVGID_00000093860132289332897180000014637750541089208991_" gradientUnits="userSpaceOnUse" x1="527.0515" y1="645.203" x2="783.3107" y2="645.203">
		<stop  offset="0" style="stop-color:#7A2890"/>
		<stop  offset="1" style="stop-color:#B449A1"/>
	</linearGradient>
	<path style="fill:url(#SVGID_00000093860132289332897180000014637750541089208991_);" d="M783.31,554.06v182.28
		c0,40.65-32.95,73.6-73.6,73.6H564.04c-20.43,0-36.99-16.56-36.99-36.99V480.46h182.66C750.36,480.46,783.31,513.42,783.31,554.06z
		 M563.66,772.95c0,0.21,0.17,0.38,0.38,0.38h145.67c20.43,0,36.99-16.56,36.99-36.99V554.06c0-20.43-16.56-36.99-36.99-36.99
		H563.66V772.95z"/>
</g>
<g>
	<path class="st0" d="M911.44,279.12v622.34c0,20.22-16.39,36.61-36.61,36.61H398.92v0c0-40.44,32.78-73.22,73.22-73.22h366.08
		V352.34C838.22,311.9,871,279.12,911.44,279.12L911.44,279.12z"/>
	<path class="st0" d="M874.83,956.37H380.62v-18.3c0-50.47,41.06-91.52,91.52-91.52h347.78V352.34c0-50.47,41.06-91.52,91.52-91.52
		h18.3v640.65C929.74,931.74,905.11,956.37,874.83,956.37z M420.36,919.77h454.47c10.09,0,18.3-8.21,18.3-18.3v-600.9
		c-21.31,7.55-36.61,27.91-36.61,51.78v530.82H472.14C448.28,883.16,427.92,898.46,420.36,919.77z"/>
</g>
<g>
	
		<linearGradient id="SVGID_00000139973358073480816860000008812029189745011361_" gradientUnits="userSpaceOnUse" x1="252.488" y1="498.7692" x2="472.1388" y2="498.7692">
		<stop  offset="0" style="stop-color:#7A2890"/>
		<stop  offset="1" style="stop-color:#B449A1"/>
	</linearGradient>
	<path style="fill:url(#SVGID_00000139973358073480816860000008812029189745011361_);" d="M472.14,205.9v256.26
		c0,20.22-16.39,36.61-36.61,36.61h-36.61v256.26c0,20.22-16.39,36.61-36.61,36.61h0c-20.22,0-36.61-16.39-36.61-36.61V498.77H289.1
		c-20.22,0-36.61-16.39-36.61-36.61V205.9h0c40.44,0,73.22,32.78,73.22,73.22v146.43h73.22V279.12
		C398.92,238.68,431.7,205.9,472.14,205.9L472.14,205.9z"/>
	
		<linearGradient id="SVGID_00000078034571484598004150000000733708285059912095_" gradientUnits="userSpaceOnUse" x1="234.1838" y1="498.7692" x2="490.443" y2="498.7692">
		<stop  offset="0" style="stop-color:#7A2890"/>
		<stop  offset="1" style="stop-color:#B449A1"/>
	</linearGradient>
	<path style="fill:url(#SVGID_00000078034571484598004150000000733708285059912095_);" d="M359.69,809.88
		c-29.59-1.38-52.29-26.98-52.29-56.59l0-218.07c0-10.02-8.12-18.14-18.14-18.14h0c-30.42,0-55.08-24.66-55.08-55.08V187.76
		c0-0.09,0.07-0.16,0.16-0.16h17.98c50.64,0,91.68,41.05,91.68,91.68v109.66c0,10.11,8.2,18.3,18.3,18.3h0
		c10.11,0,18.3-8.2,18.3-18.3V279.28c0-50.64,41.05-91.68,91.68-91.68h17.98c0.09,0,0.16,0.07,0.16,0.16V462
		c0,30.42-24.66,55.08-55.08,55.08h0c-10.02,0-18.14,8.12-18.14,18.14v219.81C417.23,786.18,391.16,811.35,359.69,809.88z
		 M270.79,227.58l0,234.42c0,10.2,8.27,18.47,18.47,18.47h54.59c0.09,0,0.16,0.07,0.16,0.16l0,273.44c0,9.63,7.02,18.32,16.61,19.18
		c10.85,0.98,20-7.58,20-18.23v-274.4c0-0.09,0.07-0.16,0.16-0.16h54.59c10.2,0,18.47-8.27,18.47-18.47l0-234.42
		c0-0.11-0.12-0.2-0.22-0.16c-21.19,7.62-36.38,27.92-36.38,51.7v164.74H307.56c-0.09,0-0.16-0.07-0.16-0.16V279.12
		c0-23.78-15.19-44.08-36.38-51.7C270.91,227.38,270.79,227.47,270.79,227.58z"/>
</g>
<g>
	<path class="st0" d="M691.79,59.47L691.79,59.47c0,40.44-32.78,73.22-73.22,73.22h-439.3v439.3c0,40.44-32.78,73.22-73.22,73.22h0
		V96.08c0-20.22,16.39-36.61,36.61-36.61H691.79z"/>
	<path class="st0" d="M106.05,663.51h-18.3V96.08c0-30.28,24.63-54.91,54.91-54.91h567.43v18.3c0,50.47-41.06,91.52-91.52,91.52
		h-421v421C197.58,622.45,156.52,663.51,106.05,663.51z M142.66,77.77c-10.09,0-18.3,8.21-18.3,18.3v527.69
		c21.31-7.55,36.61-27.91,36.61-51.78V114.38h457.61c23.86,0,44.22-15.3,51.78-36.61H142.66z"/>
</g>
</svg>
