<?xml version="1.0" encoding="utf-8"?>
<!-- Generator: Adobe Illustrator 25.4.1, SVG Export Plug-In . SVG Version: 6.00 Build 0)  -->
<svg version="1.1" id="Layer_1" xmlns="http://www.w3.org/2000/svg" xmlns:xlink="http://www.w3.org/1999/xlink" x="0px" y="0px"
	 viewBox="0 0 1000 1000" style="enable-background:new 0 0 1000 1000;" xml:space="preserve">
<style type="text/css">
	.st0{fill:#FFFFFF;}
	.st1{fill:url(#SVGID_1_);}
	.st2{fill:url(#SVGID_00000166651242428587874460000009953201660745365430_);}
</style>
<path class="st0" d="M847.9,211.64v507.4c0,23.35-18.93,42.28-42.28,42.28H382.78c-23.35,0-42.28-18.93-42.28-42.28v0
	c0-23.35,18.93-42.28,42.28-42.28h338.26c23.35,0,42.28-18.93,42.28-42.28V211.64c0-23.35,18.93-42.28,42.28-42.28h0
	C828.96,169.35,847.9,188.28,847.9,211.64z"/>
<linearGradient id="SVGID_1_" gradientUnits="userSpaceOnUse" x1="364.5271" y1="506.8913" x2="635.7497" y2="235.6688">
	<stop  offset="0" style="stop-color:#7A2890"/>
	<stop  offset="1" style="stop-color:#B449A1"/>
</linearGradient>
<path class="st1" d="M626.99,244.43v169.14c0,23.35-18.93,42.28-42.28,42.28h0c-23.35,0-42.28,18.93-42.28,42.28v84.57
	c0,23.35-18.93,42.28-42.28,42.28h0c-23.35,0-42.28-18.93-42.28-42.28v-84.56c0-23.35-18.93-42.28-42.28-42.28h0
	c-23.35,0-42.28-18.93-42.28-42.28V244.42c0-23.35,18.93-42.28,42.28-42.28h0c23.35,0,42.28,18.93,42.28,42.28V329
	c0,23.35,18.93,42.28,42.28,42.28h0c23.35,0,42.28-18.93,42.28-42.28v-84.57c0-23.35,18.93-42.28,42.28-42.28h0
	C608.06,202.14,626.99,221.08,626.99,244.43z"/>
<path class="st0" d="M741.54,105.18L741.54,105.18c0,23.35-18.93,42.28-42.28,42.28H276.32c-23.35,0-42.28,18.93-42.28,42.28v339.74
	c0,23.35-18.93,42.28-42.28,42.28h0c-23.35,0-42.28-18.93-42.28-42.28v-424.3c0-23.35,18.93-42.28,42.28-42.28h507.5
	C722.61,62.9,741.54,81.83,741.54,105.18z"/>
<linearGradient id="SVGID_00000112617509328053363810000003572964778996263046_" gradientUnits="userSpaceOnUse" x1="148.7411" y1="677.321" x2="318.2004" y2="677.321">
	<stop  offset="0" style="stop-color:#7A2890"/>
	<stop  offset="1" style="stop-color:#B449A1"/>
</linearGradient>
<path style="fill:url(#SVGID_00000112617509328053363810000003572964778996263046_);" d="M318.2,719.69L318.2,719.69
	c0,23.4-18.97,42.36-42.36,42.36h-84.73c-23.4,0-42.36-18.97-42.36-42.36v-84.73c0-23.4,18.97-42.36,42.36-42.36h0
	c23.4,0,42.36,18.97,42.36,42.36v0c0,23.4,18.97,42.36,42.36,42.36h0C299.23,677.32,318.2,696.29,318.2,719.69z"/>
<g>
	<path class="st0" d="M234.47,834.09l-30.12,58.5v33.38H189.1v-33.06l-29.35-58.82h17.36l18.07,39.41c0.21,0.47,0.85,2.24,1.92,5.32
		h0.19c0.38-1.37,1.09-3.14,2.11-5.32l18.9-39.41H234.47z"/>
	<path class="st0" d="M284.06,927.51c-13.24,0-23.85-4.29-31.81-12.88c-7.97-8.59-11.95-19.76-11.95-33.51
		c0-14.78,4.06-26.57,12.17-35.37c8.12-8.8,19.14-13.2,33.06-13.2c12.9,0,23.29,4.27,31.17,12.82s11.82,19.71,11.82,33.51
		c0,14.99-4.04,26.85-12.11,35.56C308.35,923.16,297.56,927.51,284.06,927.51z M284.77,845.94c-8.42,0-15.26,3.14-20.54,9.42
		c-5.28,6.28-7.91,14.55-7.91,24.8c0,10.21,2.56,18.43,7.69,24.67c5.13,6.24,11.83,9.36,20.12,9.36c8.8,0,15.74-2.97,20.83-8.91
		c5.08-5.94,7.62-14.25,7.62-24.93c0-10.98-2.47-19.46-7.4-25.44C300.24,848.93,293.44,845.94,284.77,845.94z"/>
	<path class="st0" d="M416.06,888.81c0,25.8-12.22,38.7-36.65,38.7c-23.41,0-35.11-12.41-35.11-37.23v-56.2h15.25v53.06
		c0,18.03,7.01,27.04,21.02,27.04c13.5,0,20.25-8.69,20.25-26.08v-54.02h15.25V888.81z"/>
	<path class="st0" d="M515.57,925.98h-16.66l-43.89-67.54c-1.11-1.71-2.03-3.48-2.76-5.32h-0.38c0.34,1.96,0.51,6.17,0.51,12.62
		v60.23h-14.74v-91.89h17.75l42.42,65.93c1.79,2.73,2.95,4.61,3.46,5.64h0.26c-0.43-2.43-0.64-6.56-0.64-12.37v-59.21h14.67V925.98z
		"/>
	<path class="st0" d="M589.9,925.98h-51.58v-91.89h49.53v12.94h-34.28v26.02h31.59v12.88h-31.59v27.17h36.33V925.98z"/>
	<path class="st0" d="M602.01,922.32v-15.7c1.41,1.28,3.09,2.43,5.03,3.46c1.94,1.03,4,1.89,6.18,2.59
		c2.18,0.71,4.36,1.25,6.54,1.63c2.18,0.38,4.19,0.58,6.02,0.58c6.41,0,11.18-1.07,14.32-3.2c3.14-2.14,4.71-5.23,4.71-9.29
		c0-2.18-0.52-4.07-1.57-5.67c-1.05-1.6-2.51-3.06-4.39-4.39s-4.09-2.6-6.63-3.81c-2.54-1.22-5.26-2.49-8.17-3.81
		c-3.12-1.67-6.02-3.35-8.71-5.06c-2.69-1.71-5.03-3.6-7.02-5.67c-1.99-2.07-3.55-4.41-4.68-7.02c-1.13-2.6-1.7-5.66-1.7-9.16
		c0-4.31,0.97-8.06,2.92-11.25c1.94-3.18,4.51-5.81,7.69-7.88c3.18-2.07,6.8-3.61,10.86-4.61c4.06-1,8.2-1.51,12.43-1.51
		c9.61,0,16.62,1.09,21.02,3.27v15.06c-5.21-3.76-11.92-5.64-20.12-5.64c-2.26,0-4.52,0.21-6.76,0.64
		c-2.24,0.43-4.25,1.13-6.02,2.12c-1.77,0.98-3.21,2.24-4.33,3.78c-1.11,1.54-1.67,3.4-1.67,5.57c0,2.05,0.43,3.82,1.28,5.32
		c0.85,1.5,2.1,2.86,3.75,4.1c1.64,1.24,3.65,2.45,6.02,3.62c2.37,1.17,5.12,2.45,8.23,3.81c3.2,1.67,6.23,3.42,9.07,5.25
		c2.84,1.84,5.34,3.87,7.5,6.09c2.16,2.22,3.87,4.69,5.13,7.4c1.26,2.71,1.89,5.8,1.89,9.26c0,4.66-0.94,8.59-2.82,11.79
		c-1.88,3.2-4.41,5.81-7.59,7.82c-3.18,2.01-6.85,3.46-10.99,4.36c-4.14,0.9-8.52,1.35-13.14,1.35c-1.54,0-3.43-0.12-5.67-0.35
		c-2.24-0.24-4.54-0.58-6.89-1.03c-2.35-0.45-4.57-0.99-6.66-1.63C604.98,923.86,603.29,923.13,602.01,922.32z"/>
	<path class="st0" d="M714.08,925.98v-91.89h24.16c7.22,0,12.96,1.94,17.24,5.83c4.27,3.89,6.41,9.04,6.41,15.44
		c0,5.34-1.42,9.96-4.26,13.87c-2.84,3.91-6.8,6.67-11.89,8.3v0.26c6.37,0.6,11.38,2.87,15.06,6.82c3.67,3.95,5.51,8.98,5.51,15.09
		c0,7.73-2.5,14.04-7.5,18.93c-5,4.89-11.68,7.34-20.06,7.34H714.08z M720.42,839.92v35.56h12.82c6.66,0,12-1.71,16.02-5.13
		c4.01-3.42,6.02-8.05,6.02-13.9c0-11.02-6.51-16.53-19.54-16.53H720.42z M720.42,881.25v38.96h17.04c7.22,0,12.74-1.73,16.56-5.19
		s5.74-8.37,5.74-14.74c0-12.69-8.61-19.03-25.82-19.03H720.42z"/>
	<path class="st0" d="M810.38,839.92v86.05h-6.28v-86.05h-26.53v-5.83h59.33v5.83H810.38z"/>
</g>
</svg>
