<?xml version="1.0" encoding="utf-8"?>
<!-- Generator: Adobe Illustrator 25.4.1, SVG Export Plug-In . SVG Version: 6.00 Build 0)  -->
<svg version="1.1" id="Layer_1" xmlns="http://www.w3.org/2000/svg" xmlns:xlink="http://www.w3.org/1999/xlink" x="0px" y="0px"
	 viewBox="0 0 1000 1000" style="enable-background:new 0 0 1000 1000;" xml:space="preserve">
<style type="text/css">
	.st0{fill:#FFFFFF;}
</style>
<g>
	<path class="st0" d="M334.88,892.6L334.88,892.6l-176.46,0c-19.49,0-35.29-15.8-35.29-35.29V680.85h0
		c38.98,0,70.58,31.6,70.58,70.58v70.58h70.58C303.28,822.02,334.88,853.62,334.88,892.6z"/>
	<path class="st0" d="M352.53,910.25H158.42c-29.19,0-52.94-23.75-52.94-52.94V663.2h17.65c48.65,0,88.23,39.58,88.23,88.23v52.94
		h52.94c48.65,0,88.23,39.58,88.23,88.23V910.25z M140.78,701.52v155.79c0,9.73,7.92,17.65,17.65,17.65h155.79
		c-7.28-20.54-26.91-35.29-49.91-35.29h-88.23v-88.23C176.07,728.43,161.32,708.8,140.78,701.52z"/>
</g>
<g>
	<path class="st0" d="M546.63,222.06V469.1H687.8c38.98,0,70.58-31.6,70.58-70.58V257.35c0-38.98-31.6-70.58-70.58-70.58H581.92
		C562.43,186.76,546.63,202.56,546.63,222.06z M670.15,398.52h-45.88c-3.9,0-7.06-3.16-7.06-7.06V264.41c0-3.9,3.16-7.06,7.06-7.06
		h45.88c9.75,0,17.65,7.9,17.65,17.65v105.88C687.8,390.61,679.9,398.52,670.15,398.52z"/>
	<path class="st0" d="M687.8,486.74H528.99V222.06c0-29.19,23.75-52.94,52.94-52.94H687.8c48.65,0,88.23,39.58,88.23,88.23v141.17
		C776.03,447.17,736.45,486.74,687.8,486.74z M564.28,451.45H687.8c29.19,0,52.94-23.75,52.94-52.94V257.35
		c0-29.19-23.75-52.94-52.94-52.94H581.92c-9.73,0-17.65,7.92-17.65,17.65V451.45z"/>
</g>
<g>
	<path class="st0" d="M564.64,751.43h140.44c29.44,0,53.3-23.87,53.3-53.3V522.4c0-29.44-23.87-53.3-53.3-53.3H546.63v264.32
		C546.63,743.37,554.7,751.43,564.64,751.43z M687.8,557.69V663.2c0,9.75-7.9,17.65-17.65,17.65h-45.88c-3.9,0-7.06-3.16-7.06-7.06
		V546.74c0-3.9,3.16-7.06,7.06-7.06h45.51C679.74,539.68,687.8,547.75,687.8,557.69z"/>
	<path class="st0" d="M776.03,522.4v175.73c0,39.18-31.77,70.95-70.95,70.95H564.64c-19.69,0-35.66-15.96-35.66-35.66V451.45h176.09
		C744.26,451.45,776.03,483.22,776.03,522.4z M564.28,733.42c0,0.2,0.16,0.37,0.37,0.37h140.44c19.69,0,35.66-15.96,35.66-35.66
		V522.4c0-19.69-15.96-35.66-35.66-35.66h-140.8V733.42z"/>
</g>
<g>
	<path class="st0" d="M899.55,257.35v599.96c0,19.49-15.8,35.29-35.29,35.29h-458.8v0c0-38.98,31.6-70.58,70.58-70.58h352.92V327.93
		C828.97,288.95,860.57,257.35,899.55,257.35L899.55,257.35z"/>
	<path class="st0" d="M864.26,910.25H387.82V892.6c0-48.65,39.58-88.23,88.23-88.23h335.27V327.93c0-48.65,39.58-88.23,88.23-88.23
		h17.65v617.61C917.2,886.5,893.45,910.25,864.26,910.25z M426.13,874.96h438.12c9.73,0,17.65-7.92,17.65-17.65V278.02
		c-20.54,7.28-35.29,26.91-35.29,49.91v511.73H476.05C453.04,839.66,433.42,854.42,426.13,874.96z"/>
</g>
<g>
	<path class="st0" d="M476.05,186.76v247.04c0,19.49-15.8,35.29-35.29,35.29h-35.29v247.04c0,19.49-15.8,35.29-35.29,35.29h0
		c-19.49,0-35.29-15.8-35.29-35.29V469.1h-35.29c-19.49,0-35.29-15.8-35.29-35.29V186.76h0c38.98,0,70.58,31.6,70.58,70.58v141.17
		h70.58V257.35C405.46,218.37,437.07,186.76,476.05,186.76L476.05,186.76z"/>
	<path class="st0" d="M367.65,769.02c-28.52-1.33-50.41-26.01-50.41-54.56l0-210.23c0-9.66-7.83-17.49-17.49-17.49h0
		c-29.32,0-53.09-23.77-53.09-53.09V169.27c0-0.09,0.07-0.16,0.16-0.16h17.33c48.81,0,88.39,39.57,88.39,88.39v105.72
		c0,9.75,7.9,17.65,17.65,17.65h0c9.75,0,17.65-7.9,17.65-17.65V257.5c0-48.81,39.57-88.39,88.39-88.39h17.33
		c0.09,0,0.16,0.07,0.16,0.16v264.38c0,29.32-23.77,53.09-53.09,53.09h0c-9.66,0-17.49,7.83-17.49,17.49v211.91
		C423.11,746.17,397.98,770.44,367.65,769.02z M281.94,207.66l0,225.99c0,9.83,7.97,17.8,17.8,17.8h52.62
		c0.09,0,0.16,0.07,0.16,0.16l0,263.61c0,9.29,6.76,17.66,16.02,18.49c10.46,0.94,19.28-7.3,19.28-17.57V451.61
		c0-0.09,0.07-0.16,0.16-0.16h52.62c9.83,0,17.8-7.97,17.8-17.8l0-225.99c0-0.11-0.11-0.19-0.22-0.15
		c-20.43,7.34-35.08,26.91-35.08,49.84v158.81H317.39c-0.09,0-0.16-0.07-0.16-0.16V257.35c0-22.92-14.65-42.49-35.08-49.84
		C282.06,207.47,281.94,207.55,281.94,207.66z"/>
</g>
<g>
	<path class="st0" d="M687.8,45.6L687.8,45.6c0,38.98-31.6,70.58-70.58,70.58h-423.5v423.5c0,38.98-31.6,70.58-70.58,70.58h0V80.89
		c0-19.49,15.8-35.29,35.29-35.29H687.8z"/>
	<path class="st0" d="M123.13,627.91h-17.65V80.89c0-29.19,23.75-52.94,52.94-52.94h547.02V45.6c0,48.65-39.58,88.23-88.23,88.23
		H211.36v405.86C211.36,588.33,171.78,627.91,123.13,627.91z M158.42,63.24c-9.73,0-17.65,7.92-17.65,17.65V589.6
		c20.54-7.28,35.29-26.91,35.29-49.92V98.53h441.15c23.01,0,42.63-14.75,49.92-35.29H158.42z"/>
</g>
</svg>
